<svg width="189" height="189" xmlns="http://www.w3.org/2000/svg" xmlns:xlink="http://www.w3.org/1999/xlink" overflow="hidden"><defs><clipPath id="clip0"><rect x="0" y="0" width="189" height="189"/></clipPath><linearGradient x1="95.0001" y1="61.5001" x2="95.0001" y2="158.5" gradientUnits="userSpaceOnUse" spreadMethod="reflect" id="fill1"><stop offset="0" stop-color="#FFDD9C"/><stop offset="0.5" stop-color="#FFD78E"/><stop offset="1" stop-color="#FFD479"/></linearGradient></defs><g clip-path="url(#clip0)"><rect x="0" y="0" width="189" height="189" fill="#FFFFFF"/><path d="M55.5373 63.3302 55.5373 63.3302C53.8325 69.4308 51.8405 75.4172 50.4227 81.6321 47.8923 92.7244 48.1056 97.7107 47.5001 109.085 47.8503 115.665 47.5603 125.589 50.4227 131.962 51.6697 134.739 60.029 142.815 61.3825 143.859 71.2005 151.425 78.1891 155.202 89.8782 157.585 94.9321 158.615 100.107 158.195 105.222 158.5 106.768 157.972 126.194 152.261 130.064 148.434 132.398 146.127 133.559 142.405 135.179 139.283 140.464 129.099 139.111 132.02 141.755 120.981 141.998 118.236 142.601 115.504 142.485 112.745 142.373 110.068 139.274 94.2734 138.832 92.6132 138.074 89.7632 136.779 87.1774 135.91 84.3774 135.072 81.6804 134.999 78.5494 133.718 76.1416 131.998 72.9112 127.142 67.9057 127.142 67.9057 126.898 66.6856 127.228 64.9764 126.411 64.2454 125.205 63.1669 123.492 63.6054 122.027 63.3302L111.798 61.5001C78.8806 64.3109 89.839 59.9916 77.457 65.1604 71.6117 64.8554 65.7556 64.7866 59.9212 64.2454 47.9772 63.1373 56.268 63.4828 55.5373 63.3302Z" stroke="#FFC000" stroke-width="0.666667" stroke-miterlimit="8" fill="url(#fill1)" fill-rule="evenodd"/><path d="M46.2346 103.097 46.2346 103.097C47.0703 98.5101 48.2926 90.5672 49.8806 85.8124 50.7921 83.0833 52.0499 80.4459 52.6151 77.625 52.919 76.1088 53.0814 74.5573 53.5266 73.0764 53.9967 71.5122 54.9001 70.0979 55.3497 68.5277 56.7262 63.719 57.4111 58.7167 58.9957 53.9722 59.2995 53.0626 59.4774 52.1008 59.9071 51.2431 60.397 50.2652 61.0288 49.3539 61.7302 48.5139 69.1962 39.5722 60.0292 51.1211 67.1992 43.9653 79.2518 31.9366 61.6491 48.2165 71.7567 36.6875 73.0378 35.2263 74.9386 34.4216 76.3142 33.0487 77.0889 32.2755 77.2257 30.926 78.1372 30.3195 78.6886 29.9526 86.2407 28.52 86.3408 28.5001 91.8097 28.8033 97.2865 28.9905 102.748 29.4098 105.19 29.5973 107.677 29.6762 110.04 30.3195 111.097 30.6072 111.768 31.7083 112.774 32.139 113.9 32.6206 120.167 33.7966 120.978 33.9584 121.889 34.5649 122.705 35.3472 123.712 35.7779 124.864 36.2704 126.396 35.8871 127.358 36.6875 128.402 37.5557 128.574 39.1135 129.181 40.3265 130.838 46.9419 128.631 41.5964 132.827 45.7848 134.308 47.2623 135.52 50.4881 136.473 52.1528 137.017 53.1022 137.689 53.9722 138.297 54.882 140.193 62.4548 137.884 54.9679 141.031 61.25 144.804 68.7823 138.542 58.8878 143.766 66.7083 145.68 86.767 143.562 79.7439 146.5 88.5416 146.196 94.3032 146.016 100.073 145.589 105.826 145.408 108.264 146.271 111.248 144.677 113.104 143.669 114.278 141.639 112.498 140.12 112.194 133.298 103.116 142.228 116.09 135.562 99.4583 134.865 97.7185 131.752 94.746 130.093 93.0902 129.789 90.9676 129.603 88.8248 129.181 86.7222 128.993 85.7818 128.949 84.6711 128.27 83.993 127.591 83.3149 126.447 83.3866 125.535 83.0833 125.465 83.1542 121.532 87.8924 120.066 86.7222 118.719 85.646 117.57 79.1276 117.332 77.625 114.92 62.3806 117.241 69.2102 113.686 60.3403 112.774 62.4629 111.129 64.4057 110.951 66.7083 110.804 68.6205 112.627 70.2545 112.774 72.1667 113.243 78.2488 112.445 77.9542 109.128 81.2638 106.505 69.4818 108.606 76.8406 105.482 68.5277 105.145 67.6299 105 66.6563 104.571 65.7986 103.778 64.2172 102.748 62.7662 101.836 61.25 100.925 62.7662 99.4493 64.0648 99.1018 65.7986 95.3048 84.746 101.398 74.6414 96.3673 82.1736 96.1267 79.2922 95.9443 68.58 93.6328 64.8889 93.1236 64.0757 91.8098 64.2825 90.8983 63.9792 90.2906 69.1342 90.2448 74.3867 89.0753 79.4444 88.7936 80.6626 88.6455 76.9596 88.1637 75.8055 87.1185 73.3019 86.4394 70.4456 84.5178 68.5277 83.159 67.1716 79.0487 66.7083 79.0487 66.7083 76.4333 74.5389 77.6918 70.3061 75.4027 79.4444 74.795 76.7152 73.727 74.0488 73.5797 71.2569 73.082 61.8189 77.7104 59.7501 70.8452 64.8889 70.2375 66.7083 69.8816 68.6319 69.0222 70.3473 68.3428 71.7034 67.1706 72.7523 66.2876 73.9861 65.6508 74.8758 65.0723 75.8055 64.4646 76.7153 64.1608 77.625 64.1683 78.7077 63.5532 79.4444 62.5806 80.6092 61.1953 81.3699 59.9071 82.1736 56.7295 84.1557 56.1145 84.0296 52.6151 84.9028 49.7201 88.1532 43.5001 92.972 43.5001 98.5485L45.323 96.7291 48.0576 97.6389 46.2346 103.097Z" stroke="#AE5A21" stroke-width="1.33333" stroke-miterlimit="8" fill="#ED7D31" fill-rule="evenodd"/><path d="M59.5001 95.3335C59.5001 93.7686 60.7686 92.5001 62.3335 92.5001L86.6667 92.5001C88.2315 92.5001 89.5001 93.7686 89.5001 95.3335L89.5001 106.667C89.5001 108.231 88.2315 109.5 86.6667 109.5L62.3335 109.5C60.7686 109.5 59.5001 108.231 59.5001 106.667Z" stroke="#000000" stroke-width="1.33333" stroke-miterlimit="8" fill-rule="evenodd"/><path d="M100.5 95.3335C100.5 93.7686 101.769 92.5001 103.333 92.5001L128.667 92.5001C130.232 92.5001 131.5 93.7686 131.5 95.3335L131.5 106.667C131.5 108.231 130.232 109.5 128.667 109.5L103.333 109.5C101.769 109.5 100.5 108.231 100.5 106.667Z" stroke="#000000" stroke-width="1.33333" stroke-miterlimit="8" fill-rule="evenodd"/><path d="M92.5001 96.5001C92.591 100.288 92.6679 104.076 92.7728 107.864 92.9132 112.934 92.6535 114.272 93.3183 117.965 93.3961 118.397 93.6003 119.497 93.8637 119.985 94.0103 120.256 94.1532 120.553 94.4091 120.742 95.8134 121.783 94.8206 120.242 95.5001 121.5" stroke="#FFC000" stroke-width="0.666667" stroke-miterlimit="8" fill="none" fill-rule="evenodd"/><path d="M85.5001 133.5C85.868 133.738 86.2638 133.932 86.604 134.214 87.2241 134.729 87.7255 135.403 88.3702 135.881 88.9126 136.283 89.538 136.538 90.1365 136.833 91.3048 137.411 93.6689 138.5 93.6689 138.5 100.108 137.343 92.45 138.942 98.9676 136.833L101.175 136.119C101.62 135.969 102.5 135.643 102.5 135.643 102.279 135.563 101.983 135.601 101.838 135.405 101.581 135.059 101.617 134.411 101.617 133.976" stroke="#ED7D31" stroke-width="1.33333" stroke-miterlimit="8" fill="none" fill-rule="evenodd"/><path d="M89 97 99.8829 97.0001" stroke="#000000" stroke-width="2" stroke-miterlimit="8" fill="none" fill-rule="evenodd"/></g></svg>